<svg xmlns="http://www.w3.org/2000/svg" viewBox="0 0 800 500" font-family="Inter, Arial, sans-serif">
  <rect width="800" height="500" fill="#ffffff"/>
  <rect width="800" height="56" fill="#ffffff"/>
  <rect y="56" width="800" height="1" fill="#e5e5e8"/>
  <rect x="32" y="18" width="20" height="20" rx="5" fill="#1d3b5c"/>
  <text x="62" y="33" font-size="13" font-weight="600" fill="#17171c">Northstar Plumbing</text>
  <rect x="470" y="24" width="48" height="8" rx="4" fill="#d4d4d9"/>
  <rect x="534" y="24" width="48" height="8" rx="4" fill="#d4d4d9"/>
  <rect x="598" y="24" width="48" height="8" rx="4" fill="#d4d4d9"/>
  <rect x="672" y="17" width="96" height="22" rx="5" fill="#1d3b5c"/>
  <rect y="57" width="800" height="250" fill="#eef2f6"/>
  <text x="48" y="130" font-size="12" font-weight="500" fill="#1d3b5c" letter-spacing="1">RELIABLE PLUMBING, DONE RIGHT</text>
  <rect x="48" y="146" width="300" height="20" rx="4" fill="#17171c"/>
  <rect x="48" y="174" width="240" height="20" rx="4" fill="#17171c"/>
  <rect x="48" y="210" width="280" height="8" rx="4" fill="#a1a1aa"/>
  <rect x="48" y="226" width="220" height="8" rx="4" fill="#a1a1aa"/>
  <rect x="48" y="252" width="112" height="30" rx="6" fill="#1d3b5c"/>
  <rect x="170" y="252" width="96" height="30" rx="6" fill="#ffffff" stroke="#d4d4d9"/>
  <rect x="440" y="90" width="312" height="190" rx="10" fill="#ffffff"/>
  <rect x="456" y="106" width="280" height="120" rx="6" fill="#1d3b5c" opacity="0.14"/>
  <rect x="456" y="238" width="160" height="8" rx="4" fill="#d4d4d9"/>
  <rect x="456" y="254" width="120" height="8" rx="4" fill="#e5e5e8"/>
  <rect x="48" y="336" width="224" height="130" rx="8" fill="#ffffff" stroke="#e5e5e8"/>
  <rect x="64" y="352" width="28" height="28" rx="6" fill="#1d3b5c" opacity="0.15"/>
  <rect x="64" y="394" width="120" height="9" rx="4" fill="#17171c"/>
  <rect x="64" y="412" width="170" height="7" rx="3" fill="#d4d4d9"/>
  <rect x="64" y="426" width="140" height="7" rx="3" fill="#d4d4d9"/>
  <rect x="288" y="336" width="224" height="130" rx="8" fill="#ffffff" stroke="#e5e5e8"/>
  <rect x="304" y="352" width="28" height="28" rx="6" fill="#1d3b5c" opacity="0.15"/>
  <rect x="304" y="394" width="120" height="9" rx="4" fill="#17171c"/>
  <rect x="304" y="412" width="170" height="7" rx="3" fill="#d4d4d9"/>
  <rect x="304" y="426" width="140" height="7" rx="3" fill="#d4d4d9"/>
  <rect x="528" y="336" width="224" height="130" rx="8" fill="#ffffff" stroke="#e5e5e8"/>
  <rect x="544" y="352" width="28" height="28" rx="6" fill="#1d3b5c" opacity="0.15"/>
  <rect x="544" y="394" width="120" height="9" rx="4" fill="#17171c"/>
  <rect x="544" y="412" width="170" height="7" rx="3" fill="#d4d4d9"/>
  <rect x="544" y="426" width="140" height="7" rx="3" fill="#d4d4d9"/>
</svg>
